<svg xmlns="http://www.w3.org/2000/svg" xmlns:xlink="http://www.w3.org/1999/xlink" viewBox="0 0 233.55 267.91"><defs><style>.cls-1{isolation:isolate;}.cls-2{fill:url(#linear-gradient);}.cls-11,.cls-13,.cls-3,.cls-5{opacity:0.33;mix-blend-mode:color-dodge;}.cls-3{fill:url(#linear-gradient-2);}.cls-4{fill:url(#linear-gradient-3);}.cls-6{fill:url(#linear-gradient-4);}.cls-7{fill:url(#linear-gradient-5);}.cls-8{fill:url(#linear-gradient-6);}.cls-9{fill:url(#linear-gradient-7);}.cls-10{fill:url(#linear-gradient-8);}.cls-11{fill:url(#linear-gradient-9);}.cls-12{fill:url(#linear-gradient-10);}.cls-13{fill:url(#linear-gradient-11);}.cls-14{fill:url(#linear-gradient-12);}</style><linearGradient id="linear-gradient" x1="13.81" y1="136.74" x2="233.74" y2="136.74" gradientTransform="matrix(0.99, -0.16, 0.16, 0.99, -18.87, 23.46)" gradientUnits="userSpaceOnUse"><stop offset="0" stop-color="#18ffff"/><stop offset="1" stop-color="#8e24aa"/></linearGradient><linearGradient id="linear-gradient-2" x1="13.81" y1="147.13" x2="199.35" y2="147.13" xlink:href="#linear-gradient"/><linearGradient id="linear-gradient-3" x1="-3.02" y1="131.12" x2="154.41" y2="131.12" xlink:href="#linear-gradient"/><linearGradient id="linear-gradient-4" x1="78.78" y1="104.38" x2="112.83" y2="104.38" xlink:href="#linear-gradient"/><linearGradient id="linear-gradient-5" x1="14.66" y1="144.56" x2="116.55" y2="144.56" xlink:href="#linear-gradient"/><linearGradient id="linear-gradient-6" x1="75.87" y1="115.6" x2="115.17" y2="115.6" xlink:href="#linear-gradient"/><linearGradient id="linear-gradient-7" x1="17.54" y1="93.52" x2="154.26" y2="93.52" xlink:href="#linear-gradient"/><linearGradient id="linear-gradient-8" x1="34.58" y1="155.61" x2="119.05" y2="155.61" gradientTransform="matrix(0.99, -0.16, 0.16, 0.99, -18.87, 23.46)" gradientUnits="userSpaceOnUse"><stop offset="0" stop-color="#8e24aa"/><stop offset="1" stop-color="#18ffff"/></linearGradient><linearGradient id="linear-gradient-9" x1="34.58" y1="155.61" x2="119.01" y2="155.61" xlink:href="#linear-gradient"/><linearGradient id="linear-gradient-10" x1="228.56" y1="134.01" x2="284.29" y2="134.01" gradientTransform="matrix(-0.93, 0.36, 0.36, 0.93, 340.95, -77.91)" xlink:href="#linear-gradient"/><linearGradient id="linear-gradient-11" x1="131.36" y1="143.27" x2="170.79" y2="143.27" xlink:href="#linear-gradient"/><linearGradient id="linear-gradient-12" x1="83.89" y1="179.22" x2="123.22" y2="179.22" gradientTransform="translate(-2.14 6.6) rotate(-3.97)" xlink:href="#linear-gradient"/></defs><g class="cls-1"><g id="Layer_2" data-name="Layer 2"><g id="OBJECTS"><path class="cls-2" d="M3.16,71.69C49.11,21.9,100.35,31,128.89,46.9c30.7,17.06,59.56,62.29,44.52,110.28-4.95,15.8-20.65,39.83-16.14,61.68,5.81,28.16,44.25,49.05,44.25,49.05-36.23-63.9,30-63.3,30.59-75.54s-12-19.61-7.5-26.8,1.36-12.35-3.68-13c0,0,9.22-6.08,7.31-10.69s-8.66-6.52-3.93-12.23,16.54-11.1,2.8-23-27-23.1-26.34-36.37c.87-16.68-30.7-53.61-63.39-65.43C100.32-8.61,30.55,3.77,3.16,71.69Z"/><path class="cls-3" d="M165,215.71c-4.55-22.6,20.42-56.78,26.2-72.88,21-58.38-21.29-103.94-56.31-114.59C102.65,18.42,49,15.83,3.16,71.69,49.11,21.9,100.35,31,128.89,46.9c30.7,17.06,59.56,62.29,44.52,110.28-4.95,15.8-20.65,39.83-16.14,61.68,5.66,27.44,42.29,48,44.16,49C199.67,266.89,172.16,251.09,165,215.71Z"/><path class="cls-4" d="M128.57,229.36l-1.57.32c-1,.22-2.56.53-4.59.85a112.89,112.89,0,0,1-17.82,1.37,123.43,123.43,0,0,1-28-3.27l-2-.49-1-.25-.51-.13-.26-.07s-.37-.13-.28-.09l-.12,0-4-1.16c-1.37-.44-2.91-1-4.4-1.55s-2.91-1.18-4.41-1.78a97,97,0,0,1-34.13-24.8A101.13,101.13,0,0,1,2.74,154.36,95.9,95.9,0,0,1,.52,141.11c-.14-1.13-.22-2.26-.28-3.4s-.13-2.28-.19-3.43,0-2.3,0-3.45,0-2.31,0-3.47l.15-3.49c.1-1.16.2-2.33.31-3.49.16-2.35.58-4.66.92-7a111.28,111.28,0,0,1,3.4-13.87l.54-1.72.14-.43c-.1.25.2-.57.19-.55l.07-.18.27-.74.53-1.47.27-.73.4-1C7.78,91.48,8.34,90.11,8.9,89S10,86.64,10.61,85.5a77.76,77.76,0,0,1,8.6-12.94,80.24,80.24,0,0,1,86-25.79c1.26.4,2.5.85,3.75,1.28l.47.16c1.53.6.53.21.92.37l.18.08.74.32,1.47.63,1.47.64.37.16.52.28,1.06.56q2.11,1.13,4.19,2.32c1.3.8,2.37,1.61,3.56,2.43l1.73,1.23c.56.42,1.09.9,1.63,1.35l3.19,2.78c1,1,2,2,2.92,3C148.71,81,153.33,105.6,146,125.3l-.64,1.84-.16.46c-.15.36.2-.48-.34.87l-.08.17-.32.68-.64,1.36-.32.68-.09.18-.14.27-.29.54c-.76,1.4-1.58,2.87-2.4,4.14s-1.64,2.28-2.47,3.39a45.81,45.81,0,0,1-42.45,16.54,30.21,30.21,0,0,1-3.67-.75,30,30,0,0,1-3.54-1L86.74,154l-.85-.31-.21-.08-.74-.29-.3-.15-1.22-.6-.61-.3-1-.55a27.83,27.83,0,0,1-3.67-2.34l-1.57-1.18-1.44-1.3a32.83,32.83,0,0,1-5-5.79,33.34,33.34,0,0,1-4.65-27.26,25.4,25.4,0,0,1,1-3.16l.29-.76.15-.38c.35-.91.14-.33.24-.57l.06-.13.55-1.05.15-.29.26-.46.53-.9a15,15,0,0,1,1.08-1.66l1.08-1.39c.38-.45.78-.87,1.18-1.29a23.89,23.89,0,0,1,5.34-4.19,23,23,0,0,1,6-2.49,24.56,24.56,0,0,1,6.21-.8,24.28,24.28,0,0,1,6,.8,19.42,19.42,0,0,1,2.76.92l.66.26.44.18.11.06.23.13.45.24.65.36c.52.3,1.08.63,1.53,1l1.21,1a19.5,19.5,0,0,1,2.11,2.16,18.32,18.32,0,0,1,2.92,5,18.09,18.09,0,0,1,1.13,5.33,16.41,16.41,0,0,1-.51,5.13,16.14,16.14,0,0,1-.81,2.34l-.11.27s-.21.51-.15.34l0,.1-.21.37c-.09.16-.43.76-.68,1.16a12.58,12.58,0,0,1-8,5.4,11.67,11.67,0,0,1-8.1-1.22,10.8,10.8,0,0,1-1-.66c-.27-.23-.55-.43-.79-.68a8.92,8.92,0,0,1-1.29-1.55,8.75,8.75,0,0,1-1.32-3.48,8.23,8.23,0,0,1,.22-3.38,8.87,8.87,0,0,1,.59-1.53l.14-.24.24-.39a6,6,0,0,1,.52-.68,5.89,5.89,0,0,1,5.06-2,5.47,5.47,0,0,1,2.16.74,4,4,0,0,1,1.47,1.6,3.67,3.67,0,0,1,.09,3.21A2.51,2.51,0,0,1,95.66,118a2.25,2.25,0,0,1-1.25,0,2.38,2.38,0,0,1-.38-.16,2.07,2.07,0,0,0,1.46-.25,1.77,1.77,0,0,0,.84-1.33,2.34,2.34,0,0,0-.61-1.9,1.89,1.89,0,0,0-.88-.52,2.87,2.87,0,0,0-1.27,0,2.58,2.58,0,0,0-1.94,1.48,1.12,1.12,0,0,0-.08.25.45.45,0,0,1,0,.11l-.07.28c0,.13-.06.47,0,.7a3.8,3.8,0,0,0,.34,1.45,3.14,3.14,0,0,0,.9,1.16,2.52,2.52,0,0,0,.59.39,1.89,1.89,0,0,0,.33.13c.1,0,.13,0,.19,0a4.8,4.8,0,0,0,3.5-.37,4.07,4.07,0,0,0,2.08-2.42c0-.11,0,0,.09-.37l.12-.42,0-.1c.09-.24-.08.2-.06.13v-.13a7.12,7.12,0,0,0-.22-3.11,6.93,6.93,0,0,0-.9-1.83,6.28,6.28,0,0,0-1.42-1.4,6.44,6.44,0,0,0-.83-.49l-.45-.18c-.11,0-.16,0-.23,0h0l-.22-.07-.48-.16-.25-.08-.12,0c.1,0-.4-.15.2.09l-.32,0a7.59,7.59,0,0,0-1.25-.14,9.28,9.28,0,0,0-4.78,1,9.55,9.55,0,0,0-2,1.38,7.7,7.7,0,0,0-1.52,1.81l-.3.5c-.08.18-.16.36-.25.53a.83.83,0,0,0-.11.36.5.5,0,0,1,0,.13l0,.06-.09.26-.37,1.13,0,.14c.06-.14-.2.52.13-.28l0,.19-.06.37a8.49,8.49,0,0,0-.21,1.49A14,14,0,0,0,87,128.54a14.36,14.36,0,0,0,2.21,1.85l.59.4.64.33a4.27,4.27,0,0,0,.93.41l.18.1.64.22,1.27.46.32.11c-1-.4-.21-.1-.41-.18l.11,0,.45.09.88.19a9.8,9.8,0,0,0,1.78.26,10.78,10.78,0,0,0,1.79.13,21.07,21.07,0,0,0,13.39-4.22,22,22,0,0,0,4.86-5.11c.29-.52.59-1,.91-1.52s.29-.74.5-1.08l.08-.12,0-.06.07-.17.27-.7.53-1.41.27-.7.06-.18c-.48,1.24-.11.27-.21.51l.06-.26.25-1c.16-.7.38-1.38.51-2.07l.3-2.12c0-.35.12-.69.16-1.05l0-1.06.13-2.12q-.06-1.07-.09-2.13c0-.35,0-.71,0-1.06l-.16-1.06c-.11-.7-.18-1.41-.29-2.11s-.35-1.39-.51-2.08A12.69,12.69,0,0,0,118.9,98c-.26-.67-.42-1.37-.72-2a33.4,33.4,0,0,0-1.92-3.83,32.57,32.57,0,0,0-2.32-3.61c-.41-.59-.92-1.09-1.37-1.65l-.68-.82c-.23-.27-.51-.5-.77-.75-.51-.49-1-1-1.52-1.5s-1.12-.88-1.67-1.34c-.28-.22-.53-.46-.83-.67l-.9-.57c-.58-.37-1.21-.84-1.74-1.14s-1-.48-1.43-.75l-.34-.21-.18-.11-.37-.15-1.48-.61-1.48-.62-.74-.3-.19-.08c.27.1-.86-.34.55.21l-.29-.09-2.35-.75a51.35,51.35,0,0,0-19.44-1.86A52.14,52.14,0,0,0,42.54,92.18a50.66,50.66,0,0,0-5.72,7.87c-.42.69-.79,1.41-1.2,2.11s-.64,1.27-1,1.91l-.25.47-.3.72-.61,1.44-.31.72-.08.18c0,.14.21-.55.07-.19l-.11.31L32.58,109a83.36,83.36,0,0,0-4.8,20.19,84.37,84.37,0,0,0,.32,20.29,89.18,89.18,0,0,0,5,19.09,87,87,0,0,0,20.39,30.63,88.43,88.43,0,0,0,13.18,10.56c1.13.71,2.28,1.53,3.37,2.13s2.14,1.28,3.34,1.91l3.69,1.85.12.06c.17.07-.11,0,0,0l.22.1.43.2.87.41,1.72.81a143.17,143.17,0,0,0,24.92,8.49c3.6.85,6.86,1.48,9.72,2s5.34.82,7.34,1.06,3.56.42,4.61.5Z"/><g class="cls-5"><path class="cls-6" d="M99.07,96.33l-.66-.26a19.42,19.42,0,0,0-2.76-.92,23.81,23.81,0,0,0-6-.8,24.56,24.56,0,0,0-6.21.8,24.19,24.19,0,0,0-9.2,4.69,22.49,22.49,0,0,1,4.34-1.71A21.64,21.64,0,0,1,89.74,98a17.87,17.87,0,0,1,2.54.8l.62.23c.49.2.2.09.34.15l.12.06.23.11.45.23.25.12.35.2c.45.27.94.54,1.34.82l1.1.85A15.91,15.91,0,0,1,99,103.48a16.55,16.55,0,0,1,2.71,4.45,16.3,16.3,0,0,1,1.09,4.83,14.62,14.62,0,0,1-.4,4.69,13.86,13.86,0,0,1-.7,2.15l-.1.26s-.15.38-.11.27l0,.09-.2.39c-.09.19-.38.68-.6,1a11.4,11.4,0,0,1-6.88,4.92,11.75,11.75,0,0,0,5.61.19,12.58,12.58,0,0,0,8-5.4c.25-.4.59-1,.68-1.16l.21-.37,0-.1c-.06.17.15-.34.15-.34l.11-.27a16.14,16.14,0,0,0,.81-2.34,16.41,16.41,0,0,0,.51-5.13,18.09,18.09,0,0,0-1.13-5.33,18.32,18.32,0,0,0-2.92-5,19.5,19.5,0,0,0-2.11-2.16l-1.21-1c-.45-.32-1-.65-1.53-1l-.65-.36-.45-.24-.23-.13-.11-.06Z"/><path class="cls-7" d="M122.37,228.71c-2-.24-4.47-.59-7.34-1.06s-6.12-1.13-9.72-2a143.17,143.17,0,0,1-24.92-8.49l-1.72-.81L77.8,216l-.43-.2-.22-.1c-.07,0,.21.07,0,0l-.12-.06-3.69-1.85c-1.2-.63-2.21-1.27-3.34-1.91s-2.24-1.42-3.37-2.13a88.43,88.43,0,0,1-13.18-10.56A87,87,0,0,1,33.1,168.52a89.18,89.18,0,0,1-5-19.09,84.37,84.37,0,0,1-.32-20.29A83.36,83.36,0,0,1,32.58,109l.46-1.23.05-.14.07-.16.31-.72.61-1.44.3-.72.25-.47c.35-.64.59-1.2,1-1.91s.78-1.42,1.2-2.11a50.66,50.66,0,0,1,5.72-7.87A52.14,52.14,0,0,1,76.72,74.74,51.35,51.35,0,0,1,96.16,76.6l2.35.75.16.05.51.21,1.48.62,1.48.61.37.15.18.11.34.21c.47.27.94.52,1.43.75s1.16.77,1.74,1.14l.9.57c.3.21.55.45.83.67l.52.42-1.37-1.38-1.9-1.54c-.31-.25-.61-.53-.94-.77l-1-.66c-.67-.43-1.36-1-2-1.32s-1.23-.63-1.82-1L98.94,76l-.23-.13-.37-.16-1.48-.61-1.48-.62-.71-.3-.19-.06-2.55-.84a54.72,54.72,0,0,0-21.17-2,55.74,55.74,0,0,0-43.22,27.7c-.44.76-.84,1.54-1.27,2.31s-.71,1.45-1.08,2.17l-.27.54-.3.72-.6,1.45-.3.72-.06.14-.1.28-.47,1.31A86,86,0,0,0,20,119.08a89.93,89.93,0,0,0-1.69,10.73A86.49,86.49,0,0,0,19,151.05a90.33,90.33,0,0,0,5.57,19.81,89.19,89.19,0,0,0,35.61,41.68c1.18.69,2.36,1.49,3.52,2.08s2.26,1.26,3.48,1.86l3.74,1.75,3.45,1.51a139.42,139.42,0,0,0,25.35,7.74c3.64.73,6.93,1.24,9.81,1.65s5.36.62,7.36.77,3.56.26,4.61.3l1.58.08-1.56.25c-1,.18-2.57.42-4.6.65-1.87.21-4.18.44-6.86.6a112.44,112.44,0,0,0,12.4-1.25c2-.32,3.56-.63,4.59-.85l1.57-.32-1.59-.15C125.93,229.13,124.37,228.94,122.37,228.71Z"/><path class="cls-8" d="M114.19,126.85c.16-.27.33-.53.5-.79-.43.46-.88.92-1.35,1.35l0,0c-.48.44-1,.87-1.5,1.26a21.07,21.07,0,0,1-13.39,4.22,10.78,10.78,0,0,1-1.79-.13,9.8,9.8,0,0,1-1.78-.26l-.88-.19-.45-.09-.11,0c.2.08-.6-.22.41.18l-.32-.11-1.27-.46-.64-.22-.18-.1a4.27,4.27,0,0,1-.93-.41l-.64-.33-.59-.4A14.36,14.36,0,0,1,87,128.54a14,14,0,0,1-3.72-10.88,8.49,8.49,0,0,1,.21-1.49l.06-.37,0-.19c-.33.8-.07.14-.13.28l0-.14.37-1.13.09-.26,0-.06a.5.5,0,0,0,0-.13.83.83,0,0,1,.11-.36c.07-.12.12-.25.18-.38s0,0,0,0l.06-.11.3-.5A7.7,7.7,0,0,1,86.23,111a9.55,9.55,0,0,1,2-1.38,8.2,8.2,0,0,1,1-.42l.41-.15a5.44,5.44,0,0,1,.54-.15,9.09,9.09,0,0,1,1.36-.27h0l-.35-.18c-.17-.08-.28-.1-.42-.17l-.09,0-.22-.08-.49-.17-.24-.09-.12,0c.06,0-.31-.12.11,0l-.37-.07a9,9,0,0,0-1.47-.25,11.38,11.38,0,0,0-5.83.88A11.5,11.5,0,0,0,79.45,110a9.82,9.82,0,0,0-2.07,2.15c-.14.21-.3.4-.43.61l-.36.65a2.88,2.88,0,0,0-.26.55l-.1.24-.07.12-.09.26-.4,1.12,0,.14c0-.09-.16.4.07-.16l0,.21-.09.43a10.32,10.32,0,0,0-.32,1.73,16.78,16.78,0,0,0,3.85,13.22,17,17,0,0,0,2.61,2.41l.71.53.77.45a9,9,0,0,0,1.32.69l.3.16.63.24,1.27.47.32.12c-.71-.28-.13-.06-.25-.11l.12,0,.51.12,1,.25a12.72,12.72,0,0,0,2,.37,11.79,11.79,0,0,0,2.06.21,24.46,24.46,0,0,0,15.77-4.44A25.44,25.44,0,0,0,114.19,126.85Z"/><path class="cls-9" d="M133.42,64.41c-1-1-1.93-2-2.92-3l-3.19-2.78c-.54-.45-1.07-.93-1.63-1.35L124,56c-1.19-.82-2.26-1.63-3.56-2.43s-2.78-1.57-4.19-2.32l-1.06-.56-.52-.28-.37-.16-1.47-.64L111.31,49l-.74-.32-.18-.08c-.39-.16.61.23-.92-.37l-.47-.16c-1.25-.43-2.49-.88-3.75-1.28A79.9,79.9,0,0,0,11.31,84.25a74,74,0,0,1,5.72-8A75.8,75.8,0,0,1,40,57.52a77.55,77.55,0,0,1,28.65-8.65A76.52,76.52,0,0,1,98.42,52c1.19.37,2.36.79,3.55,1.19l.44.15.71.29.18.08L104,54l1.48.63,1.47.64.36.16.48.25,1,.51c1.27.68,2.54,1.39,3.79,2.1s2.19,1.5,3.29,2.25l1.61,1.14c.52.4,1,.84,1.51,1.26l3,2.57,2.71,2.83c14.3,15.32,18.72,38.24,12,56.68l-.58,1.73-.15.44a6,6,0,0,1-.26.67l-.08.17-.31.68-.62,1.37-.31.69c0,.09-.12.24-.21.41l-.26.48c-.69,1.25-1.4,2.56-2.14,3.7l-2.24,3.13a42.31,42.31,0,0,1-39,15.5,26,26,0,0,1-3.39-.66,24.8,24.8,0,0,1-3.3-.92l-1.6-.55-.62-.22.19.11,1,.55.61.3,1.22.6.3.15.74.29.21.08.85.31,1.73.62a30,30,0,0,0,3.54,1,30.21,30.21,0,0,0,3.67.75,45.81,45.81,0,0,0,42.45-16.54c.83-1.11,1.65-2.24,2.47-3.39s1.64-2.74,2.4-4.14l.29-.54.14-.27.09-.18.32-.68.64-1.36.32-.68.08-.17c.54-1.35.19-.51.34-.87l.16-.46.64-1.84C153.33,105.6,148.71,81,133.42,64.41Z"/></g><path class="cls-10" d="M41.35,106c-15.62,29.14-4,112.49,93.29,114.86,0,0-2-33-57.86-54.8C30.31,147.93,41.35,106,41.35,106Z"/><path class="cls-11" d="M76.94,176.91c-31.89-12.42-36.77-41.19-36.7-58A48.68,48.68,0,0,1,41.35,106c-15.62,29.14-4,112.49,93.29,114.86C134.64,220.84,132.83,198.68,76.94,176.91Z"/><path class="cls-12" d="M156.38,83.79c23.92,36.1,17,73.39-13.11,113.62,0,0-9.21-30.3,6.5-63.41C163.87,104.27,156.38,83.79,156.38,83.79Z"/><path class="cls-13" d="M156.38,83.79s12.35,26.29-1.76,56c-15.71,33.11-11.35,57.6-11.35,57.6C173.41,157.18,180.3,119.89,156.38,83.79Z"/><path class="cls-14" d="M134.09,194.58c-22.52-9.08-17.64-28-41.25-31.43,0,0,13.9-5.67,27.28,2C136.23,174.47,134.09,194.58,134.09,194.58Z"/></g></g></g></svg>